<svg width="220" height="220" viewBox="0 0 220 220" fill="none" xmlns="http://www.w3.org/2000/svg">
<g clip-path="url(#clip0_1_2)">
<path d="M110 220C88.2441 220 66.9767 213.549 48.8873 201.462C30.7979 189.375 16.6989 172.195 8.37325 152.095C0.0476074 131.995 -2.13076 109.878 2.11362 88.5401C6.35799 67.2022 16.8345 47.602 32.2183 32.2183C47.602 16.8345 67.2022 6.35799 88.5401 2.11362C109.878 -2.13076 131.995 0.0476074 152.095 8.37325C172.195 16.6989 189.375 30.7979 201.462 48.8873C213.549 66.9767 220 88.2441 220 110C220 139.174 208.411 167.153 187.782 187.782C167.153 208.411 139.174 220 110 220V220ZM14.13 152C20.7347 167.043 30.7824 180.323 43.4627 190.77C56.143 201.216 71.1009 208.537 87.13 212.14C94.3526 199.59 100.749 186.582 106.28 173.2C126 173.74 168.72 173.2 190.08 131.81C190.63 130.72 191.72 128.54 195.56 120.37L197.75 116.01L185.75 108.93C172.61 100.22 141.93 96.93 118.38 101.31C115.63 79 103 59.91 80.58 42.49L68 33.77L59.22 46.84C48.22 63.18 42.79 86.6 44.43 108.38C44.98 116 47.72 130.17 55.93 142.15C48.12 146.3 33.88 151.92 14.13 152Z" fill="white"/>
</g>
<defs>
<clipPath id="clip0_1_2">
<rect width="220" height="220" fill="white"/>
</clipPath>
</defs>
</svg>
